#!OML:ASF F:\VICON\USERDATA\INSTALL\rory3\rory3.ASF
:FULLY-SPECIFIED
:DEGREES
484
root -0.364724 18.659 -18.1003 31.9263 -0.297197 30.4537
lowerback -15.3049 -14.7121 -21.2433
upperback -17.4265 -18.6757 -12.4394
thorax -10.1472 -8.28421 -4.37621
lowerneck -9.77446 8.46439 0.361801
upperneck 18.6889 10.1882 7.60886
head 6.92552 5.60242 3.26552
rclavicle 5.00937e-014 -8.5875e-014
rhumerus -44.0988 -60.013 47.4577
rradius 15.0935
rwrist 88.1025
rhand 11.0678 -0.84864
rfingers 7.12502
rthumb 36.1384 -27.131
lclavicle 5.00937e-014 -8.5875e-014
lhumerus 65.6548 -16.8685 25.9836
lradius 22.0492
lwrist -50.8581
lhand 8.87097 23.0017
lfingers 7.12502
lthumb 34.0547 49.7733
rfemur -27.7655 6.92003 -10.0339
rtibia 6.33348
rfoot -33.1789 -45.1963
rtoes 43.2517
lfemur 22.8673 -14.9529 -2.36157
ltibia 34.0931
lfoot 38.6183 37.3896
ltoes 14.1746
485
root -0.390836 18.5938 -18.0534 32.2157 -0.533441 30.6847
lowerback -15.5329 -14.7216 -21.363
upperback -17.1249 -18.5226 -12.5419
thorax -9.6894 -8.24322 -4.50301
lowerneck -10.8518 8.35027 0.174318
upperneck 18.9893 9.97459 7.89651
head 7.19415 5.52574 3.44245
rclavicle -1.59028e-015 7.4743e-014
rhumerus -44.3633 -59.5132 47.3777
rradius 15.1324
rwrist 87.1342
rhand 10.5241 -1.53807
rfingers 7.12502
rthumb 35.6232 -27.9463
lclavicle -1.59028e-015 7.4743e-014
lhumerus 65.9639 -16.3418 26.5564
lradius 21.9951
lwrist -51.3151
lhand 8.74554 23.1157
lfingers 7.12502
lthumb 33.9356 49.9138
rfemur -27.6471 6.32871 -9.88643
rtibia 6.11211
rfoot -32.2499 -44.8066
rtoes 40.8787
lfemur 22.2715 -15.0005 -2.76869
ltibia 34.0251
lfoot 38.4971 37.1598
ltoes 13.6107
486
root -0.406956 18.5225 -18.0105 32.3748 -0.577233 30.951
lowerback -15.5282 -14.8005 -21.3783
upperback -17.2225 -18.6583 -12.5333
thorax -9.80666 -8.30581 -4.49687
lowerneck -10.2637 8.40732 0.192627
upperneck 18.9376 10.0619 7.90413
head 7.0703 5.56276 3.41331
rclavicle -6.36111e-014 -1.44715e-013
rhumerus -42.5157 -58.5626 45.1754
rradius 15.2408
rwrist 85.9359
rhand 10.2043 -2.58963
rfingers 7.12502
rthumb 35.3201 -29.0703
lclavicle -6.36111e-014 -1.44715e-013
lhumerus 66.2657 -17.3494 23.4703
lradius 22.3208
lwrist -47.7723
lhand 8.13114 24.2366
lfingers 7.12502
lthumb 33.3517 51.162
rfemur -27.4621 5.6155 -9.69569
rtibia 6.47345
rfoot -33.3998 -42.6448
rtoes 41.2754
lfemur 21.6008 -15.0414 -3.04451
ltibia 33.9344
lfoot 38.3527 36.6704
ltoes 12.3809
487
root -0.415434 18.4449 -17.961 31.9978 -0.561916 31.0614
lowerback -15.186 -14.7568 -21.3133
upperback -17.094 -18.7043 -12.5381
thorax -9.82491 -8.33264 -4.46322
lowerneck -10.6793 8.58583 0.683458
upperneck 19.5748 10.2549 7.5471
head 7.39449 5.66263 3.29575
rclavicle -4.45278e-014 -2.38542e-014
rhumerus -34.2165 -50.0873 35.5408
rradius 14.3037
rwrist 75.2535
rhand 9.42301 -4.37484
rfingers 7.12502
rthumb 34.5789 -31.0282
lclavicle -4.45278e-014 -2.38542e-014
lhumerus 65.9404 -17.6039 22.7568
lradius 22.455
lwrist -46.8695
lhand 7.9322 24.4301
lfingers 7.12502
lthumb 33.1626 51.3959
rfemur -26.7127 5.19746 -9.29172
rtibia 6.77339
rfoot -33.6611 -41.1891
rtoes 40.9438
lfemur 21.4013 -15.0357 -3.29078
ltibia 33.8989
lfoot 39.2072 34.2217
ltoes 7.02336
488
root -0.414926 18.3569 -17.8995 31.4745 -0.921544 31.0248
lowerback -15.3216 -15.5361 -21.2369
upperback -18.4835 -19.9389 -11.005
thorax -10.8435 -8.7667 -2.99659
lowerneck -6.26374 9.90946 -0.101149
upperneck 18.9261 12.4224 6.94562
head 6.31409 6.55876 3.07884
rclavicle 8.0309e-014 5.08889e-014
rhumerus -24.6267 -44.0106 25.7889
rradius 14.1496
rwrist 66.7926
rhand 8.28203 -5.17242
rfingers 7.12502
rthumb 33.4951 -32.0668
lclavicle 8.0309e-014 5.08889e-014
lhumerus 60.7605 -17.6463 24.3817
lradius 22.5815
lwrist -47.6984
lhand 8.18139 24.2492
lfingers 7.12502
lthumb 33.3995 51.1643
rfemur -26.2059 5.1511 -9.05317
rtibia 7.23715
rfoot -32.3124 -40.9366
rtoes 38.1107
lfemur 21.6061 -14.8102 -3.94561
ltibia 33.7497
lfoot 37.6038 37.0982
ltoes 12.3613
